<?xml version="1.0" encoding="UTF-8" ?>
<svg width="2797pt" height="332pt" viewBox="0.00 0.00 2796.89 332.00" xmlns="http://www.w3.org/2000/svg" xmlns:xlink="http://www.w3.org/1999/xlink">
<g id="graph0" class="graph" transform="scale(1 1) rotate(0) translate(4 328)">
<title>CSharpDepsGraph</title>
<polygon fill="#ffffff" stroke="transparent" points="-4,4 -4,-328 2792.8883,-328 2792.8883,4 -4,4"/>
<!-- 0 -->
<g id="node1" class="node">
<title>0</title>
<polygon fill="#7d6050" stroke="#7d6050" points="1087.306,-252 927.0232,-252 927.0232,-216 1087.306,-216 1087.306,-252"/>
<text text-anchor="middle" x="1007.1646" y="-229.8" font-family="Times,serif" font-size="14.00" fill="#ffffff">CSharpDepsGraph.Cli.dll</text>
</g>
<!-- 193 -->
<g id="node2" class="node">
<title>193</title>
<polygon fill="#7d6050" stroke="#7d6050" points="1855.792,-180 1674.5373,-180 1674.5373,-144 1855.792,-144 1855.792,-180"/>
<text text-anchor="middle" x="1765.1646" y="-157.8" font-family="Times,serif" font-size="14.00" fill="#ffffff">CSharpDepsGraph.Export.dll</text>
</g>
<!-- 0&#45;&gt;193 -->
<g id="edge13" class="edge">
<title>0-&gt;193</title>
<path fill="none" stroke="#000000" d="M1087.5663,-226.3629C1226.6796,-213.149 1511.961,-186.051 1664.2014,-171.5902"/>
<polygon fill="#000000" stroke="#000000" points="1664.8572,-175.0437 1674.4814,-170.6137 1664.1952,-168.0751 1664.8572,-175.0437"/>
</g>
<!-- 332 -->
<g id="node3" class="node">
<title>332</title>
<polygon fill="#7d6050" stroke="#7d6050" points="2159.1878,-108 2019.1414,-108 2019.1414,-72 2159.1878,-72 2159.1878,-108"/>
<text text-anchor="middle" x="2089.1646" y="-85.8" font-family="Times,serif" font-size="14.00" fill="#ffffff">CSharpDepsGraph.dll</text>
</g>
<!-- 0&#45;&gt;332 -->
<g id="edge2" class="edge">
<title>0-&gt;332</title>
<path fill="none" stroke="#000000" d="M1087.6611,-231.7913C1287.2864,-225.909 1794.1706,-208.3508 1865.1646,-180 1888.3118,-170.7564 1886.2138,-155.8066 1908.1646,-144 1939.4406,-127.1778 1976.6464,-114.9246 2009.1679,-106.3851"/>
<polygon fill="#000000" stroke="#000000" points="2010.2733,-109.7154 2019.0986,-103.8533 2008.5439,-102.9323 2010.2733,-109.7154"/>
</g>
<!-- 1162 -->
<g id="node6" class="node">
<title>1162</title>
<polygon fill="#7d6050" stroke="#7d6050" points="388.659,-180 225.6702,-180 225.6702,-144 388.659,-144 388.659,-180"/>
<text text-anchor="middle" x="307.1646" y="-157.8" font-family="Times,serif" font-size="14.00" fill="#ffffff">System.CommandLine.dll</text>
</g>
<!-- 0&#45;&gt;1162 -->
<g id="edge1" class="edge">
<title>0-&gt;1162</title>
<path fill="none" stroke="#000000" d="M926.6315,-229.3372C810.4223,-222.0367 589.1261,-205.9919 402.1646,-180 401.0631,-179.8469 399.955,-179.6896 398.8413,-179.5285"/>
<polygon fill="#000000" stroke="#000000" points="399.1111,-176.0294 388.6983,-177.9844 398.0576,-182.9496 399.1111,-176.0294"/>
</g>
<!-- 1167 -->
<g id="node7" class="node">
<title>1167</title>
<polygon fill="#7d6050" stroke="#7d6050" points="1212.892,-36 1085.4372,-36 1085.4372,0 1212.892,0 1212.892,-36"/>
<text text-anchor="middle" x="1149.1646" y="-13.8" font-family="Times,serif" font-size="14.00" fill="#ffffff">System.Runtime.dll</text>
</g>
<!-- 0&#45;&gt;1167 -->
<g id="edge3" class="edge">
<title>0-&gt;1167</title>
<path fill="none" stroke="#000000" d="M992.4895,-215.7088C985.46,-205.772 977.7951,-192.9031 974.1646,-180 961.1639,-133.7941 945.6632,-110.6222 974.1646,-72 980.6505,-63.211 1030.5976,-48.2981 1075.4783,-36.3682"/>
<polygon fill="#000000" stroke="#000000" points="1076.4773,-39.7246 1085.2567,-33.7939 1074.6951,-32.9552 1076.4773,-39.7246"/>
</g>
<!-- 1177 -->
<g id="node8" class="node">
<title>1177</title>
<polygon fill="#7d6050" stroke="#7d6050" points="1051.7905,-36 772.5388,-36 772.5388,0 1051.7905,0 1051.7905,-36"/>
<text text-anchor="middle" x="912.1646" y="-13.8" font-family="Times,serif" font-size="14.00" fill="#ffffff">Microsoft.Extensions.Logging.Abstractions.dll</text>
</g>
<!-- 0&#45;&gt;1177 -->
<g id="edge4" class="edge">
<title>0-&gt;1177</title>
<path fill="none" stroke="#000000" d="M926.8169,-229.2533C773.1905,-219.7888 451.487,-197.9358 435.1646,-180 424.3957,-168.1666 425.402,-156.6764 435.1646,-144 475.1727,-92.0515 637.9384,-57.1725 762.3185,-37.5265"/>
<polygon fill="#000000" stroke="#000000" points="762.9949,-40.9634 772.336,-35.9638 761.916,-34.047 762.9949,-40.9634"/>
</g>
<!-- 1189 -->
<g id="node9" class="node">
<title>1189</title>
<polygon fill="#7d6050" stroke="#7d6050" points="650.0332,-180 444.2961,-180 444.2961,-144 650.0332,-144 650.0332,-180"/>
<text text-anchor="middle" x="547.1646" y="-157.8" font-family="Times,serif" font-size="14.00" fill="#ffffff">Microsoft.Extensions.Logging.dll</text>
</g>
<!-- 0&#45;&gt;1189 -->
<g id="edge5" class="edge">
<title>0-&gt;1189</title>
<path fill="none" stroke="#000000" d="M926.9777,-221.6831C858.7736,-211.1777 757.9246,-195.5759 660.0693,-180.1388"/>
<polygon fill="#000000" stroke="#000000" points="660.4227,-176.6513 649.9992,-178.5491 659.3311,-183.5657 660.4227,-176.6513"/>
</g>
<!-- 1198 -->
<g id="node10" class="node">
<title>1198</title>
<polygon fill="#7d6050" stroke="#7d6050" points="922.4194,-180 667.9099,-180 667.9099,-144 922.4194,-144 922.4194,-180"/>
<text text-anchor="middle" x="795.1646" y="-157.8" font-family="Times,serif" font-size="14.00" fill="#ffffff">Microsoft.Extensions.Logging.Console.dll</text>
</g>
<!-- 0&#45;&gt;1198 -->
<g id="edge6" class="edge">
<title>0-&gt;1198</title>
<path fill="none" stroke="#000000" d="M953.9417,-215.9243C924.8341,-206.0387 888.598,-193.7321 858.0952,-183.3726"/>
<polygon fill="#000000" stroke="#000000" points="859.0038,-179.9849 848.4094,-180.0831 856.7527,-186.6131 859.0038,-179.9849"/>
</g>
<!-- 1234 -->
<g id="node11" class="node">
<title>1234</title>
<polygon fill="#7d6050" stroke="#7d6050" points="2789.113,-36 2683.2163,-36 2683.2163,0 2789.113,0 2789.113,-36"/>
<text text-anchor="middle" x="2736.1646" y="-13.8" font-family="Times,serif" font-size="14.00" fill="#ffffff">System.Linq.dll</text>
</g>
<!-- 0&#45;&gt;1234 -->
<g id="edge7" class="edge">
<title>0-&gt;1234</title>
<path fill="none" stroke="#000000" d="M1087.692,-230.7245C1306.4673,-221.639 1898.096,-195.7548 1937.1646,-180 1959.9659,-170.8052 1956.5165,-153.5659 1979.1646,-144 2141.9644,-75.2378 2200.7952,-136.7629 2375.1646,-108 2481.2268,-90.5046 2601.9531,-57.7211 2673.4543,-36.9204"/>
<polygon fill="#000000" stroke="#000000" points="2674.5944,-40.2337 2683.2101,-34.0677 2672.6297,-33.5151 2674.5944,-40.2337"/>
</g>
<!-- 1248 -->
<g id="node12" class="node">
<title>1248</title>
<polygon fill="#7d6050" stroke="#7d6050" points="1392.4418,-36 1249.8875,-36 1249.8875,0 1392.4418,0 1392.4418,-36"/>
<text text-anchor="middle" x="1321.1646" y="-13.8" font-family="Times,serif" font-size="14.00" fill="#ffffff">System.Collections.dll</text>
</g>
<!-- 0&#45;&gt;1248 -->
<g id="edge8" class="edge">
<title>0-&gt;1248</title>
<path fill="none" stroke="#000000" d="M1002.9272,-215.9371C999.428,-196.3331 997.1711,-165.0218 1012.1646,-144 1040.2082,-104.6814 1162.7837,-63.1344 1244.867,-38.9382"/>
<polygon fill="#000000" stroke="#000000" points="1246.0502,-42.2389 1254.6673,-36.0748 1244.087,-35.5198 1246.0502,-42.2389"/>
</g>
<!-- 1321 -->
<g id="node13" class="node">
<title>1321</title>
<polygon fill="#7d6050" stroke="#7d6050" points="1541.8029,-180 1370.5264,-180 1370.5264,-144 1541.8029,-144 1541.8029,-180"/>
<text text-anchor="middle" x="1456.1646" y="-157.8" font-family="Times,serif" font-size="14.00" fill="#ffffff">Microsoft.Build.Locator.dll</text>
</g>
<!-- 0&#45;&gt;1321 -->
<g id="edge9" class="edge">
<title>0-&gt;1321</title>
<path fill="none" stroke="#000000" d="M1087.4354,-222.5935C1156.9567,-212.5215 1260.4739,-197.0637 1360.5052,-180.0818"/>
<polygon fill="#000000" stroke="#000000" points="1361.2157,-183.5112 1370.4853,-178.3804 1360.0393,-176.6108 1361.2157,-183.5112"/>
</g>
<!-- 1327 -->
<g id="node14" class="node">
<title>1327</title>
<polygon fill="#7d6050" stroke="#7d6050" points="1352.4482,-180 1053.8811,-180 1053.8811,-144 1352.4482,-144 1352.4482,-180"/>
<text text-anchor="middle" x="1203.1646" y="-157.8" font-family="Times,serif" font-size="14.00" fill="#ffffff">Microsoft.CodeAnalysis.Workspaces.MSBuild.dll</text>
</g>
<!-- 0&#45;&gt;1327 -->
<g id="edge10" class="edge">
<title>0-&gt;1327</title>
<path fill="none" stroke="#000000" d="M1056.3707,-215.9243C1083.0486,-206.1243 1116.2032,-193.945 1144.2499,-183.6422"/>
<polygon fill="#000000" stroke="#000000" points="1145.7585,-186.8167 1153.9383,-180.0831 1143.3447,-180.246 1145.7585,-186.8167"/>
</g>
<!-- 1335 -->
<g id="node15" class="node">
<title>1335</title>
<polygon fill="#7d6050" stroke="#7d6050" points="2441.1034,-36 2197.2258,-36 2197.2258,0 2441.1034,0 2441.1034,-36"/>
<text text-anchor="middle" x="2319.1646" y="-13.8" font-family="Times,serif" font-size="14.00" fill="#ffffff">Microsoft.CodeAnalysis.Workspaces.dll</text>
</g>
<!-- 0&#45;&gt;1335 -->
<g id="edge11" class="edge">
<title>0-&gt;1335</title>
<path fill="none" stroke="#000000" d="M1087.5032,-230.4396C1299.8804,-220.8542 1862.5158,-194.2667 1900.1646,-180 1924.4411,-170.8006 1922.0134,-153.5233 1946.1646,-144 2031.6621,-110.2865 2296.0712,-175.7556 2358.1646,-108 2374.8495,-89.7936 2360.1158,-63.3332 2344.2055,-43.8128"/>
<polygon fill="#000000" stroke="#000000" points="2346.8151,-41.4794 2337.6413,-36.1793 2341.5076,-46.0435 2346.8151,-41.4794"/>
</g>
<!-- 1350 -->
<g id="node16" class="node">
<title>1350</title>
<polygon fill="#7d6050" stroke="#7d6050" points="1652.6955,-36 1481.6338,-36 1481.6338,0 1652.6955,0 1652.6955,-36"/>
<text text-anchor="middle" x="1567.1646" y="-13.8" font-family="Times,serif" font-size="14.00" fill="#ffffff">Microsoft.CodeAnalysis.dll</text>
</g>
<!-- 0&#45;&gt;1350 -->
<g id="edge12" class="edge">
<title>0-&gt;1350</title>
<path fill="none" stroke="#000000" d="M1009.8492,-215.9456C1013.8679,-195.4405 1023.4461,-162.4447 1045.1646,-144 1108.7931,-89.9628 1338.8495,-49.8685 1471.3471,-30.6537"/>
<polygon fill="#000000" stroke="#000000" points="1472.099,-34.0817 1481.4993,-29.1946 1471.1031,-27.1529 1472.099,-34.0817"/>
</g>
<!-- 1410 -->
<g id="node17" class="node">
<title>1410</title>
<polygon fill="#7d6050" stroke="#7d6050" points="207.5553,-180 82.774,-180 82.774,-144 207.5553,-144 207.5553,-180"/>
<text text-anchor="middle" x="145.1646" y="-157.8" font-family="Times,serif" font-size="14.00" fill="#ffffff">System.Console.dll</text>
</g>
<!-- 0&#45;&gt;1410 -->
<g id="edge14" class="edge">
<title>0-&gt;1410</title>
<path fill="none" stroke="#000000" d="M926.88,-230.3185C758.0727,-222.2893 370.1342,-202.2489 217.969,-179.91"/>
<polygon fill="#000000" stroke="#000000" points="218.2727,-176.4159 207.859,-178.3667 217.2163,-183.3358 218.2727,-176.4159"/>
</g>
<!-- 193&#45;&gt;332 -->
<g id="edge19" class="edge">
<title>193-&gt;332</title>
<path fill="none" stroke="#000000" d="M1846.5053,-143.9243C1896.2226,-132.876 1959.5475,-118.8038 2009.0404,-107.8054"/>
<polygon fill="#000000" stroke="#000000" points="2010.0611,-111.164 2019.0637,-105.578 2008.5426,-104.3307 2010.0611,-111.164"/>
</g>
<!-- 193&#45;&gt;1167 -->
<g id="edge15" class="edge">
<title>193-&gt;1167</title>
<path fill="none" stroke="#000000" d="M1674.3927,-150.5274C1657.0548,-148.3493 1639.0501,-146.0965 1622.1646,-144 1491.5251,-127.7796 1454.1641,-146.1303 1328.1646,-108 1276.3633,-92.3237 1221.4058,-62.456 1186.265,-41.4389"/>
<polygon fill="#000000" stroke="#000000" points="1187.7025,-38.2178 1177.3354,-36.033 1184.0773,-44.2059 1187.7025,-38.2178"/>
</g>
<!-- 193&#45;&gt;1177 -->
<g id="edge18" class="edge">
<title>193-&gt;1177</title>
<path fill="none" stroke="#000000" d="M1674.436,-152.8977C1526.5382,-138.033 1248.7572,-109.9904 1238.1646,-108 1145.8173,-90.6477 1041.5302,-59.819 976.3201,-39.1442"/>
<polygon fill="#000000" stroke="#000000" points="977.184,-35.7461 966.5933,-36.0437 975.058,-42.4155 977.184,-35.7461"/>
</g>
<!-- 193&#45;&gt;1234 -->
<g id="edge20" class="edge">
<title>193-&gt;1234</title>
<path fill="none" stroke="#000000" d="M1856.0957,-152.8029C1966.2602,-141.1967 2140.6179,-121.1638 2168.1646,-108 2189.1555,-97.9691 2184.8992,-81.4348 2206.1646,-72 2298.716,-30.938 2555.8644,-53.2359 2673.0193,-35.8306"/>
<polygon fill="#000000" stroke="#000000" points="2673.9399,-39.2261 2683.2359,-34.1434 2672.7992,-32.3196 2673.9399,-39.2261"/>
</g>
<!-- 193&#45;&gt;1248 -->
<g id="edge17" class="edge">
<title>193-&gt;1248</title>
<path fill="none" stroke="#000000" d="M1674.4339,-146.1487C1669.6112,-145.3991 1664.8319,-144.6778 1660.1646,-144 1593.28,-134.287 1411.9814,-148.886 1358.1646,-108 1338.8052,-93.2922 1329.5191,-66.6782 1325.0987,-46.1926"/>
<polygon fill="#000000" stroke="#000000" points="1328.4946,-45.3128 1323.2031,-36.1341 1321.6157,-46.6093 1328.4946,-45.3128"/>
</g>
<!-- 193&#45;&gt;1350 -->
<g id="edge24" class="edge">
<title>193-&gt;1350</title>
<path fill="none" stroke="#000000" d="M1849.9195,-143.8621C1868.1076,-135.9021 1885.1488,-124.4559 1896.1646,-108 1905.0651,-94.7041 1906.5827,-84.1434 1896.1646,-72 1863.6471,-34.0972 1728.7454,-43.7316 1662.8089,-35.8078"/>
<polygon fill="#000000" stroke="#000000" points="1663.2412,-32.334 1652.8449,-34.3754 1662.245,-39.2628 1663.2412,-32.334"/>
</g>
<!-- 1424 -->
<g id="node18" class="node">
<title>1424</title>
<polygon fill="#7d6050" stroke="#7d6050" points="1542.9803,-108 1367.3489,-108 1367.3489,-72 1542.9803,-72 1542.9803,-108"/>
<text text-anchor="middle" x="1455.1646" y="-85.8" font-family="Times,serif" font-size="14.00" fill="#ffffff">System.Xml.XDocument.dll</text>
</g>
<!-- 193&#45;&gt;1424 -->
<g id="edge16" class="edge">
<title>193-&gt;1424</title>
<path fill="none" stroke="#000000" d="M1687.3387,-143.9243C1643.3102,-133.6983 1588.1279,-120.8818 1542.6092,-110.3097"/>
<polygon fill="#000000" stroke="#000000" points="1543.2863,-106.8739 1532.7537,-108.0207 1541.7026,-113.6924 1543.2863,-106.8739"/>
</g>
<!-- 1447 -->
<g id="node19" class="node">
<title>1447</title>
<polygon fill="#7d6050" stroke="#7d6050" points="1671.6377,-108 1560.6916,-108 1560.6916,-72 1671.6377,-72 1671.6377,-108"/>
<text text-anchor="middle" x="1616.1646" y="-85.8" font-family="Times,serif" font-size="14.00" fill="#ffffff">DotNetGraph.dll</text>
</g>
<!-- 193&#45;&gt;1447 -->
<g id="edge21" class="edge">
<title>193-&gt;1447</title>
<path fill="none" stroke="#000000" d="M1727.5656,-143.8314C1707.8149,-134.2874 1683.435,-122.5065 1662.523,-112.4013"/>
<polygon fill="#000000" stroke="#000000" points="1664.02,-109.2376 1653.4933,-108.038 1660.9743,-115.5403 1664.02,-109.2376"/>
</g>
<!-- 1503 -->
<g id="node20" class="node">
<title>1503</title>
<polygon fill="#7d6050" stroke="#7d6050" points="2348.7158,-108 2215.6134,-108 2215.6134,-72 2348.7158,-72 2348.7158,-108"/>
<text text-anchor="middle" x="2282.1646" y="-85.8" font-family="Times,serif" font-size="14.00" fill="#ffffff">System.Text.Json.dll</text>
</g>
<!-- 193&#45;&gt;1503 -->
<g id="edge22" class="edge">
<title>193-&gt;1503</title>
<path fill="none" stroke="#000000" d="M1855.9372,-150.533C1873.2751,-148.3544 1891.2796,-146.1 1908.1646,-144 2038.363,-127.8072 2071.8647,-130.2567 2201.1646,-108 2202.6287,-107.748 2204.1062,-107.4871 2205.5938,-107.2184"/>
<polygon fill="#000000" stroke="#000000" points="2206.3434,-110.6388 2215.5204,-105.344 2205.0446,-103.7603 2206.3434,-110.6388"/>
</g>
<!-- 1515 -->
<g id="node21" class="node">
<title>1515</title>
<polygon fill="#7d6050" stroke="#7d6050" points="1886.8583,-108 1689.4709,-108 1689.4709,-72 1886.8583,-72 1886.8583,-108"/>
<text text-anchor="middle" x="1788.1646" y="-85.8" font-family="Times,serif" font-size="14.00" fill="#ffffff">System.Text.Encodings.Web.dll</text>
</g>
<!-- 193&#45;&gt;1515 -->
<g id="edge23" class="edge">
<title>193-&gt;1515</title>
<path fill="none" stroke="#000000" d="M1770.9685,-143.8314C1773.4554,-136.0463 1776.4177,-126.7729 1779.1772,-118.1347"/>
<polygon fill="#000000" stroke="#000000" points="1782.5736,-119.0041 1782.2826,-108.4133 1775.9056,-116.874 1782.5736,-119.0041"/>
</g>
<!-- 1543 -->
<g id="node22" class="node">
<title>1543</title>
<polygon fill="#7d6050" stroke="#7d6050" points="2179.6892,-36 1962.64,-36 1962.64,0 2179.6892,0 2179.6892,-36"/>
<text text-anchor="middle" x="2071.1646" y="-13.8" font-family="Times,serif" font-size="14.00" fill="#ffffff">Microsoft.CodeAnalysis.CSharp.dll</text>
</g>
<!-- 193&#45;&gt;1543 -->
<g id="edge25" class="edge">
<title>193-&gt;1543</title>
<path fill="none" stroke="#000000" d="M1821.5823,-143.9116C1849.5752,-134.3115 1883.6316,-121.6812 1913.1646,-108 1955.9207,-88.1932 2002.5325,-60.8866 2033.9679,-41.5597"/>
<polygon fill="#000000" stroke="#000000" points="2036.1537,-44.3231 2042.8152,-36.0845 2032.4699,-38.3708 2036.1537,-44.3231"/>
</g>
<!-- 332&#45;&gt;1167 -->
<g id="edge29" class="edge">
<title>332-&gt;1167</title>
<path fill="none" stroke="#000000" d="M2019.0871,-82.8167C1982.4852,-79.2289 1936.9405,-75.0209 1896.1646,-72 1605.411,-50.4592 1530.4744,-72.0768 1241.1646,-36 1235.2674,-35.2646 1229.1806,-34.3728 1223.0785,-33.3841"/>
<polygon fill="#000000" stroke="#000000" points="1223.2706,-29.8666 1212.8252,-31.6394 1222.0963,-36.7674 1223.2706,-29.8666"/>
</g>
<!-- 332&#45;&gt;1177 -->
<g id="edge30" class="edge">
<title>332-&gt;1177</title>
<path fill="none" stroke="#000000" d="M2019.1004,-82.6304C1982.502,-78.9925 1936.9565,-74.7959 1896.1646,-72 1532.223,-47.0548 1439.8905,-63.9147 1076.1646,-36 1071.6242,-35.6515 1067.0151,-35.2769 1062.3636,-34.8808"/>
<polygon fill="#000000" stroke="#000000" points="1062.3906,-31.3697 1052.1226,-33.9809 1061.7778,-38.3429 1062.3906,-31.3697"/>
</g>
<!-- 332&#45;&gt;1234 -->
<g id="edge28" class="edge">
<title>332-&gt;1234</title>
<path fill="none" stroke="#000000" d="M2159.6174,-74.1581C2164.19,-73.3606 2168.735,-72.6306 2173.1646,-72 2390.9395,-40.9968 2452.618,-74.3338 2673.291,-35.9225"/>
<polygon fill="#000000" stroke="#000000" points="2674.0024,-39.3511 2683.2392,-34.1614 2672.7821,-32.4582 2674.0024,-39.3511"/>
</g>
<!-- 332&#45;&gt;1248 -->
<g id="edge26" class="edge">
<title>332-&gt;1248</title>
<path fill="none" stroke="#000000" d="M2019.0461,-83.3194C1982.4331,-79.8668 1936.891,-75.628 1896.1646,-72 1707.7882,-55.2188 1660.3104,-55.1957 1472.1646,-36 1449.6161,-33.6995 1425.2091,-30.9176 1402.7259,-28.2359"/>
<polygon fill="#000000" stroke="#000000" points="1402.8909,-24.7306 1392.5448,-27.0129 1402.056,-31.6807 1402.8909,-24.7306"/>
</g>
<!-- 332&#45;&gt;1335 -->
<g id="edge31" class="edge">
<title>332-&gt;1335</title>
<path fill="none" stroke="#000000" d="M2146.9065,-71.9243C2178.7589,-61.9531 2218.4795,-49.5188 2251.7491,-39.104"/>
<polygon fill="#000000" stroke="#000000" points="2252.9014,-42.4109 2261.399,-36.0831 2250.8101,-35.7305 2252.9014,-42.4109"/>
</g>
<!-- 332&#45;&gt;1350 -->
<g id="edge27" class="edge">
<title>332-&gt;1350</title>
<path fill="none" stroke="#000000" d="M2019.1429,-74.412C2014.4225,-73.5414 2009.7306,-72.7267 2005.1646,-72 1857.0403,-48.425 1815.5865,-57.8566 1663.0264,-36.048"/>
<polygon fill="#000000" stroke="#000000" points="1663.2137,-32.5386 1652.8146,-34.5657 1662.208,-39.466 1663.2137,-32.5386"/>
</g>
<!-- 332&#45;&gt;1543 -->
<g id="edge32" class="edge">
<title>332-&gt;1543</title>
<path fill="none" stroke="#000000" d="M2084.6225,-71.8314C2082.6762,-64.0463 2080.3579,-54.7729 2078.1983,-46.1347"/>
<polygon fill="#000000" stroke="#000000" points="2081.5889,-45.2658 2075.768,-36.4133 2074.7979,-46.9636 2081.5889,-45.2658"/>
</g>
<!-- 1620 -->
<g id="node23" class="node">
<title>1620</title>
<polygon fill="#7d6050" stroke="#7d6050" points="2665.5938,-36 2458.7354,-36 2458.7354,0 2665.5938,0 2665.5938,-36"/>
<text text-anchor="middle" x="2562.1646" y="-13.8" font-family="Times,serif" font-size="14.00" fill="#ffffff">System.Collections.Immutable.dll</text>
</g>
<!-- 332&#45;&gt;1620 -->
<g id="edge33" class="edge">
<title>332-&gt;1620</title>
<path fill="none" stroke="#000000" d="M2159.2079,-74.5424C2163.9231,-73.6403 2168.608,-72.783 2173.1646,-72 2292.2919,-51.5306 2325.569,-53.7167 2448.278,-36.2451"/>
<polygon fill="#000000" stroke="#000000" points="2449.0481,-39.6704 2458.4476,-34.7815 2448.051,-32.7418 2449.0481,-39.6704"/>
</g>
<!-- 1675 -->
<g id="node24" class="node">
<title>1675</title>
<polygon fill="#7d6050" stroke="#7d6050" points="1944.9789,-36 1671.3504,-36 1671.3504,0 1944.9789,0 1944.9789,-36"/>
<text text-anchor="middle" x="1808.1646" y="-13.8" font-family="Times,serif" font-size="14.00" fill="#ffffff">Microsoft.Extensions.FileSystemGlobbing.dll</text>
</g>
<!-- 332&#45;&gt;1675 -->
<g id="edge34" class="edge">
<title>332-&gt;1675</title>
<path fill="none" stroke="#000000" d="M2018.9813,-72.0171C1979.2509,-61.837 1929.413,-49.0672 1888.1708,-38.4998"/>
<polygon fill="#000000" stroke="#000000" points="1888.9829,-35.0949 1878.4271,-36.0032 1887.2454,-41.8758 1888.9829,-35.0949"/>
</g>
<!-- 784 -->
<g id="node4" class="node">
<title>784</title>
<polygon fill="#7d6050" stroke="#7d6050" points="1103.8529,-324 910.4764,-324 910.4764,-288 1103.8529,-288 1103.8529,-324"/>
<text text-anchor="middle" x="1007.1646" y="-301.8" font-family="Times,serif" font-size="14.00" fill="#ffffff">CSharpDepsGraph.Cli.Tests.dll</text>
</g>
<!-- 784&#45;&gt;0 -->
<g id="edge35" class="edge">
<title>784-&gt;0</title>
<path fill="none" stroke="#000000" d="M1007.1646,-287.8314C1007.1646,-280.131 1007.1646,-270.9743 1007.1646,-262.4166"/>
<polygon fill="#000000" stroke="#000000" points="1010.6647,-262.4132 1007.1646,-252.4133 1003.6647,-262.4133 1010.6647,-262.4132"/>
</g>
<!-- 784&#45;&gt;332 -->
<g id="edge38" class="edge">
<title>784-&gt;332</title>
<path fill="none" stroke="#000000" d="M1104.194,-304.2866C1374.027,-299.185 2129.6331,-282.5189 2376.1646,-252 2530.7515,-232.8632 2620.9843,-300.9294 2719.1646,-180 2729.2495,-167.5784 2730.0752,-155.703 2719.1646,-144 2680.2003,-102.2055 2262.9509,-114.3497 2206.1646,-108 2194.2771,-106.6708 2181.7472,-105.0155 2169.4814,-103.2512"/>
<polygon fill="#000000" stroke="#000000" points="2169.663,-99.7404 2159.2602,-101.7483 2168.6446,-106.6659 2169.663,-99.7404"/>
</g>
<!-- 784&#45;&gt;1162 -->
<g id="edge42" class="edge">
<title>784-&gt;1162</title>
<path fill="none" stroke="#000000" d="M919.5715,-287.9808C786.4353,-260.5928 534.3468,-208.7346 398.8304,-180.8569"/>
<polygon fill="#000000" stroke="#000000" points="399.3793,-177.3967 388.8792,-178.8098 397.9688,-184.2531 399.3793,-177.3967"/>
</g>
<!-- 784&#45;&gt;1167 -->
<g id="edge36" class="edge">
<title>784-&gt;1167</title>
<path fill="none" stroke="#000000" d="M910.4363,-304.5077C649.7702,-298.7835 -40.1768,-271.5355 74.1646,-144 221.4529,20.2841 843.1801,-70.1447 1061.1646,-36 1065.8298,-35.2693 1070.6227,-34.4595 1075.4476,-33.5997"/>
<polygon fill="#000000" stroke="#000000" points="1076.165,-37.0266 1085.366,-31.7739 1074.8976,-30.1423 1076.165,-37.0266"/>
</g>
<!-- 784&#45;&gt;1177 -->
<g id="edge43" class="edge">
<title>784-&gt;1177</title>
<path fill="none" stroke="#000000" d="M910.0709,-304.1294C670.9295,-299.0494 70.7026,-283.2352 41.1646,-252 -13.8026,-193.8742 -13.6258,-130.2925 41.1646,-72 65.4275,-46.1864 519.2978,-29.2645 761.9791,-22.0228"/>
<polygon fill="#000000" stroke="#000000" points="762.4119,-25.5116 772.3038,-21.7168 762.2044,-18.5147 762.4119,-25.5116"/>
</g>
<!-- 784&#45;&gt;1234 -->
<g id="edge39" class="edge">
<title>784-&gt;1234</title>
<path fill="none" stroke="#000000" d="M1104.0436,-304.3902C1419.0208,-298.907 2401.8869,-279.7457 2542.1646,-252 2632.3856,-234.1551 2683.6515,-255.5026 2736.1646,-180 2763.8163,-140.2429 2754.2706,-80.6787 2745.0563,-45.9384"/>
<polygon fill="#000000" stroke="#000000" points="2748.3363,-44.6747 2742.2488,-36.0033 2741.6001,-46.5782 2748.3363,-44.6747"/>
</g>
<!-- 784&#45;&gt;1410 -->
<g id="edge41" class="edge">
<title>784-&gt;1410</title>
<path fill="none" stroke="#000000" d="M910.088,-296.207C821.3249,-286.7306 686.5358,-271.0279 570.1646,-252 415.3847,-226.6918 374.9583,-215.8725 217.605,-180.0604"/>
<polygon fill="#000000" stroke="#000000" points="218.0927,-176.582 207.5655,-177.7777 216.5407,-183.4078 218.0927,-176.582"/>
</g>
<!-- 2004 -->
<g id="node25" class="node">
<title>2004</title>
<polygon fill="#7d6050" stroke="#7d6050" points="2116.1352,-180 1988.194,-180 1988.194,-144 2116.1352,-144 2116.1352,-180"/>
<text text-anchor="middle" x="2052.1646" y="-157.8" font-family="Times,serif" font-size="14.00" fill="#ffffff">nunit.framework.dll</text>
</g>
<!-- 784&#45;&gt;2004 -->
<g id="edge37" class="edge">
<title>784-&gt;2004</title>
<path fill="none" stroke="#000000" d="M1104.0633,-296.5273C1278.7631,-278.749 1657.7938,-236.9766 1974.1646,-180 1975.4341,-179.7714 1976.714,-179.5357 1978.002,-179.2937"/>
<polygon fill="#000000" stroke="#000000" points="1978.8566,-182.6928 1987.9936,-177.3294 1977.5062,-175.8242 1978.8566,-182.6928"/>
</g>
<!-- 2032 -->
<g id="node26" class="node">
<title>2032</title>
<polygon fill="#7d6050" stroke="#7d6050" points="2710.5574,-180 2609.7719,-180 2609.7719,-144 2710.5574,-144 2710.5574,-180"/>
<text text-anchor="middle" x="2660.1646" y="-157.8" font-family="Times,serif" font-size="14.00" fill="#ffffff">NSubstitute.dll</text>
</g>
<!-- 784&#45;&gt;2032 -->
<g id="edge40" class="edge">
<title>784-&gt;2032</title>
<path fill="none" stroke="#000000" d="M1104.0506,-304.0602C1359.274,-298.5981 2045.8974,-281.5325 2271.1646,-252 2389.2349,-236.521 2524.011,-201.2892 2599.9053,-179.7848"/>
<polygon fill="#000000" stroke="#000000" points="2601.1075,-183.0816 2609.7649,-176.9743 2599.1885,-176.3498 2601.1075,-183.0816"/>
</g>
<!-- 825 -->
<g id="node5" class="node">
<title>825</title>
<polygon fill="#7d6050" stroke="#7d6050" points="2261.7349,-252 2088.5944,-252 2088.5944,-216 2261.7349,-216 2261.7349,-252"/>
<text text-anchor="middle" x="2175.1646" y="-229.8" font-family="Times,serif" font-size="14.00" fill="#ffffff">CSharpDepsGraph.Tests.dll</text>
</g>
<!-- 825&#45;&gt;193 -->
<g id="edge45" class="edge">
<title>825-&gt;193</title>
<path fill="none" stroke="#000000" d="M2088.4648,-218.7747C2023.3969,-207.3481 1934.1555,-191.6764 1865.9151,-179.6928"/>
<polygon fill="#000000" stroke="#000000" points="1866.4593,-176.2349 1856.0046,-177.9524 1865.2485,-183.1294 1866.4593,-176.2349"/>
</g>
<!-- 825&#45;&gt;332 -->
<g id="edge50" class="edge">
<title>825-&gt;332</title>
<path fill="none" stroke="#000000" d="M2175.3991,-215.7631C2174.8471,-196.5738 2171.6397,-166.141 2158.1646,-144 2151.1065,-132.4027 2140.5831,-122.3283 2129.8687,-114.1246"/>
<polygon fill="#000000" stroke="#000000" points="2131.8488,-111.2374 2121.6922,-108.2216 2127.7513,-116.9129 2131.8488,-111.2374"/>
</g>
<!-- 825&#45;&gt;1167 -->
<g id="edge46" class="edge">
<title>825-&gt;1167</title>
<path fill="none" stroke="#000000" d="M2088.5227,-232.3492C1954.2864,-228.6574 1703.0758,-216.8981 1622.1646,-180 1600.9973,-170.347 1605.3013,-153.7199 1584.1646,-144 1443.6975,-79.4044 1377.56,-174.877 1238.1646,-108 1208.562,-93.7977 1183.197,-65.5156 1167.207,-44.4269"/>
<polygon fill="#000000" stroke="#000000" points="1169.8864,-42.1624 1161.1452,-36.1756 1164.2451,-46.3068 1169.8864,-42.1624"/>
</g>
<!-- 825&#45;&gt;1177 -->
<g id="edge49" class="edge">
<title>825-&gt;1177</title>
<path fill="none" stroke="#000000" d="M2088.4353,-229.5315C1935.1326,-221.125 1628.2198,-201.8261 1584.1646,-180 1564.7156,-170.3644 1570.5776,-153.7081 1551.1646,-144 1405.7651,-71.288 1346.2467,-141.4805 1187.1646,-108 1108.7932,-91.5059 1021.3809,-60.6505 966.5836,-39.7182"/>
<polygon fill="#000000" stroke="#000000" points="967.6649,-36.3841 957.075,-36.0603 965.1516,-42.9174 967.6649,-36.3841"/>
</g>
<!-- 825&#45;&gt;1234 -->
<g id="edge47" class="edge">
<title>825-&gt;1234</title>
<path fill="none" stroke="#000000" d="M2261.8253,-216.9512C2263.6202,-216.6284 2265.4016,-216.3109 2267.1646,-216 2368.6265,-198.1056 2400.2905,-217.7208 2496.1646,-180 2580.9837,-146.6287 2666.0465,-79.2642 2708.4599,-42.7986"/>
<polygon fill="#000000" stroke="#000000" points="2710.8607,-45.3492 2716.1175,-36.1504 2706.2716,-40.0633 2710.8607,-45.3492"/>
</g>
<!-- 825&#45;&gt;1248 -->
<g id="edge54" class="edge">
<title>825-&gt;1248</title>
<path fill="none" stroke="#000000" d="M2088.5925,-230.9149C1963.5738,-225.4347 1739.3426,-211.4717 1665.1646,-180 1642.2198,-170.2651 1645.0291,-153.9222 1622.1646,-144 1561.7837,-117.7973 1373.667,-155.5603 1328.1646,-108 1312.8279,-91.9696 1312.3121,-66.1485 1314.9158,-46.2661"/>
<polygon fill="#000000" stroke="#000000" points="1318.4001,-46.6456 1316.5541,-36.2128 1311.4912,-45.5197 1318.4001,-46.6456"/>
</g>
<!-- 825&#45;&gt;1321 -->
<g id="edge53" class="edge">
<title>825-&gt;1321</title>
<path fill="none" stroke="#000000" d="M2088.5198,-228.9401C1968.5669,-221.3665 1745.2919,-205.2177 1556.1646,-180 1554.8614,-179.8262 1553.5493,-179.6473 1552.23,-179.4637"/>
<polygon fill="#000000" stroke="#000000" points="1552.4004,-175.9516 1541.9999,-177.9717 1551.3901,-182.8783 1552.4004,-175.9516"/>
</g>
<!-- 825&#45;&gt;1327 -->
<g id="edge56" class="edge">
<title>825-&gt;1327</title>
<path fill="none" stroke="#000000" d="M2088.6191,-229.6034C1941.6044,-221.8378 1633.4669,-204.2765 1362.4536,-180.0937"/>
<polygon fill="#000000" stroke="#000000" points="1362.6962,-176.6015 1352.4235,-179.1941 1362.0709,-183.5735 1362.6962,-176.6015"/>
</g>
<!-- 825&#45;&gt;1335 -->
<g id="edge51" class="edge">
<title>825-&gt;1335</title>
<path fill="none" stroke="#000000" d="M2261.7562,-217.0124C2340.4395,-201.5269 2444.4117,-180.9184 2445.1646,-180 2484.801,-131.6514 2410.91,-73.4746 2360.4965,-41.6558"/>
<polygon fill="#000000" stroke="#000000" points="2362.0457,-38.4987 2351.6994,-36.2174 2358.3648,-44.4529 2362.0457,-38.4987"/>
</g>
<!-- 825&#45;&gt;1350 -->
<g id="edge52" class="edge">
<title>825-&gt;1350</title>
<path fill="none" stroke="#000000" d="M2169.6288,-215.7655C2162.5346,-195.4075 2148.3088,-162.8516 2125.1646,-144 2083.6397,-110.1766 2060.8425,-125.3233 2010.1646,-108 1966.6522,-93.1261 1957.7318,-83.3284 1913.1646,-72 1807.0341,-45.0229 1775.1305,-53.9441 1662.863,-36.0501"/>
<polygon fill="#000000" stroke="#000000" points="1663.271,-32.5705 1652.8381,-34.4157 1662.1445,-39.4793 1663.271,-32.5705"/>
</g>
<!-- 825&#45;&gt;1503 -->
<g id="edge48" class="edge">
<title>825-&gt;1503</title>
<path fill="none" stroke="#000000" d="M2261.8806,-225.4197C2321.24,-217.547 2392.4665,-203.4598 2411.1646,-180 2421.1371,-167.488 2420.0289,-157.3201 2411.1646,-144 2398.8587,-125.5081 2378.8729,-113.3365 2358.2681,-105.3296"/>
<polygon fill="#000000" stroke="#000000" points="2359.3774,-102.0093 2348.7828,-101.9361 2357.0193,-108.6002 2359.3774,-102.0093"/>
</g>
<!-- 825&#45;&gt;1543 -->
<g id="edge55" class="edge">
<title>825-&gt;1543</title>
<path fill="none" stroke="#000000" d="M2262.0059,-216.7845C2334.1472,-202.2807 2425.4412,-183.3661 2428.1646,-180 2438.2285,-167.5614 2434.1833,-158.8248 2428.1646,-144 2411.376,-102.6473 2397.4863,-93.1118 2358.1646,-72 2342.886,-63.7969 2261.9655,-48.9384 2189.9295,-36.8812"/>
<polygon fill="#000000" stroke="#000000" points="2190.2707,-33.3899 2179.8316,-35.1994 2189.1207,-40.2948 2190.2707,-33.3899"/>
</g>
<!-- 825&#45;&gt;1620 -->
<g id="edge58" class="edge">
<title>825-&gt;1620</title>
<path fill="none" stroke="#000000" d="M2261.8363,-217.0113C2263.6278,-216.6702 2265.4056,-216.3328 2267.1646,-216 2354.6188,-199.4546 2390.8942,-230.5314 2464.1646,-180 2511.9016,-147.0779 2540.3844,-82.5992 2553.4802,-45.6904"/>
<polygon fill="#000000" stroke="#000000" points="2556.8492,-46.655 2556.7691,-36.0604 2550.2249,-44.3925 2556.8492,-46.655"/>
</g>
<!-- 825&#45;&gt;2004 -->
<g id="edge44" class="edge">
<title>825-&gt;2004</title>
<path fill="none" stroke="#000000" d="M2144.1265,-215.8314C2128.3941,-206.6221 2109.1036,-195.3301 2092.2603,-185.4706"/>
<polygon fill="#000000" stroke="#000000" points="2093.5911,-182.1941 2083.1928,-180.1628 2090.0548,-188.2352 2093.5911,-182.1941"/>
</g>
<!-- 825&#45;&gt;2032 -->
<g id="edge59" class="edge">
<title>825-&gt;2032</title>
<path fill="none" stroke="#000000" d="M2262.0475,-226.6085C2347.6027,-218.4507 2481.7158,-203.3034 2596.1646,-180 2597.4052,-179.7474 2598.657,-179.4834 2599.9167,-179.2094"/>
<polygon fill="#000000" stroke="#000000" points="2600.7299,-182.6138 2609.6762,-176.938 2599.1431,-175.796 2600.7299,-182.6138"/>
</g>
<!-- 2140 -->
<g id="node27" class="node">
<title>2140</title>
<polygon fill="#7d6050" stroke="#7d6050" points="2402.0276,-180 2210.3017,-180 2210.3017,-144 2402.0276,-144 2402.0276,-180"/>
<text text-anchor="middle" x="2306.1646" y="-157.8" font-family="Times,serif" font-size="14.00" fill="#ffffff">System.Diagnostics.Process.dll</text>
</g>
<!-- 825&#45;&gt;2140 -->
<g id="edge57" class="edge">
<title>825-&gt;2140</title>
<path fill="none" stroke="#000000" d="M2208.2215,-215.8314C2225.1323,-206.5368 2245.9032,-195.1208 2263.9588,-185.1971"/>
<polygon fill="#000000" stroke="#000000" points="2266.0406,-188.0468 2273.1184,-180.1628 2262.669,-181.9122 2266.0406,-188.0468"/>
</g>
</g>
</svg>